<svg version="1.1" class="iconic-clock" xmlns="http://www.w3.org/2000/svg" xmlns:xlink="http://www.w3.org/1999/xlink" x="0px" y="0px" width="384px" height="384px" viewBox="0 0 384 384" enable-background="new 0 0 384 384" xml:space="preserve">
  <g id="tallrik">
	<g class="st0">
		<path class="st1" d="M304.6,79.2c-30.1-30.1-70-46.6-112.6-46.6c-42.5,0-82.5,16.6-112.6,46.6c-30.1,30.1-46.6,70-46.6,112.6
			c0,42.5,16.6,82.5,46.6,112.6c30.1,30.1,70,46.6,112.6,46.6c42.5,0,82.5-16.6,112.6-46.6c30.1-30.1,46.6-70,46.6-112.6
			S334.6,109.3,304.6,79.2z"/>
		<path class="st2" d="M327.8,56C291.5,19.8,243.3-0.2,192-0.2c-51.3,0-99.5,20-135.8,56.2S0,140.5,0,191.8
			c0,51.3,20,99.5,56.2,135.8s84.5,56.2,135.8,56.2c51.3,0,99.5-20,135.8-56.2S384,243.1,384,191.8C384,140.5,364,92.3,327.8,56z
			 M192,351c-42.5,0-82.5-16.6-112.6-46.6c-30.1-30.1-46.6-70-46.6-112.6c0-42.5,16.6-82.5,46.6-112.6c30.1-30.1,70-46.6,112.6-46.6
			c42.5,0,82.5,16.6,112.6,46.6c30.1,30.1,46.6,70,46.6,112.6s-16.6,82.5-46.6,112.6C274.5,334.4,234.5,351,192,351z"/>
	</g>
	<path class="st3" d="M70,340c33.2,27.4,75.7,43.8,122.1,43.8c46.6,0,89.4-16.6,122.6-44.3L192.6,193.9L70,340z"/>
	<path class="st4" d="M324.2,331c36.8-35,59.8-84.4,59.8-139.1C384,88,301.5,3.4,198.4,0.1v181L324.2,331z"/>
	<path class="st5" d="M186.2,0.1C82.9,3.2,0.2,87.9,0.2,191.9c0,55,23.2,104.7,60.3,139.7l125.6-149.7V0.1z"/>
	<path class="st6" d="M198.4,181.1V0.1C196.3,0,194.2,0,192.1,0c-2,0-4,0-5.9,0.1v181.7L60.5,331.6c3.1,2.9,6.3,5.7,9.5,8.4
		l122.6-146.1l122.2,145.6c3.3-2.7,6.4-5.5,9.5-8.4L198.4,181.1z"/>
	<path class="st7" d="M287.7,179.7c-2.4-1-4.9-1.6-7.5-1.8c-0.7,0-1.2,0.1-1.8,0.6c-1.1,0.9-2.2,1.7-3.2,2.5c-2.9,2.5-5,5.4-6.3,8.9
		c-0.5,1.2-0.4,2.5,0,3.8c0.5,2,0.2,4,0.1,6.1c-0.1,0-0.1,0-0.2,0.1c-0.5-1-1.1-2-1.5-3c-1.4-3.5-2.7-7-4.1-10.5c-0.4-1-0.9-2-1.3-3
		c-0.3-0.7-0.7-1.1-1.4-1.4c-0.4-0.2-0.7-0.4-1.1-0.5c-1.1-0.4-1.9-1-2.7-1.8c-2.2-2-4.9-2.9-8-2.4c-1.7,0.3-2.9,1.1-3.1,2.9
		c-0.1,0.7-0.3,1.4-0.4,2c-0.6,2.4,0.4,4.4,2.1,6.2c1.3,1.3,2.7,2.6,4,3.9c0.2,0.2,0.7,0.3,1,0.4c1,0.3,1.9,0.5,2,1.8
		c0.1,1.2,1.2,2,2.3,2.5c2.7,1.3,5.4,2.7,8.1,4.1c0.5,0.3,0.7,0.5,0.3,1c-0.7-0.2-1.5-0.5-2.2-0.7c-4.1-1.2-8.1-1-12.2,0.1
		c-2.2,0.6-4.4,1.4-6.2,2.8c-1.7,1.3-2.8,2.9-3.5,4.9c0,0.1-0.1,0.2-0.2,0.4c-0.1,1.1-0.2,2.2-0.3,3.3c0.2,0.8,0.3,1.6,0.6,2.5
		c0.7,2.6,3,3.3,5.3,1.8c0.7-0.4,1.2-1,1.9-1.6c0.3,0.9,0.5,1.7,0.8,2.6c0.1,0.4,0.3,0.8,0.5,1.2c0.6,1.1,2,1.4,3.1,0.7
		c2.7-1.8,5.3-3.7,7.5-6c1.2-1.2,2.5-2.3,4.2-3.1c2.4-1,4.8-1,7.1,0.1c1.1,0.5,2.1,1.2,3.1,1.9c-3.4,3.4-9.3,10.9-3.9,18.8
		c0,0,36.4,37.5,51.6,48.3c0,0,14.8,10.8,18.2,8c2.5-2-4.5-19.4-4.5-19.4c-7.4-16.4-37.9-59.7-37.9-59.7c-7-7.1-15.9-2.1-19.6,0.6
		c-1.9-3.1-1.7-7.4,0.5-10c0.4-0.5,1-1,1.6-1.3c2.1-1,3.7-2.6,5.4-4.1c1.7-1.5,3.4-3,5.2-4.6c-1.3-1.4-2.5-3-4.7-3.6
		c0.8-0.6,1.6-1.1,2.2-1.6c1.3-1.1,1.5-2.4,0.4-3.8C288.6,180.2,288.1,179.9,287.7,179.7z"/>
	<path class="st7" d="M307.9,94.8c-0.7-1.8,5-7.3,6.7-8.7c0.7-0.5,1-2.6,0.7-3.6c-1-3.6-4.1-4.1-7-4.8c-1.7-0.4-8.5,3.3-9.9,2.3
		c-3.2-2.3-6.4-1.3-8.3,3c-0.9,2-1.4,4.2-2.4,6.2c-0.4,0.9-2,2.1-2.5,1.8c-2.8-1.2-4.4,0.7-5.5,3.2c-1.2,2.9-2.6,4.4-5.7,4.7
		c-3.1,0.3-3.8,3.8-4.1,6.7c-0.5,5.3-7,12.5-13,13.5l-0.2-0.2c1.3-2.7,2.3-5,3.6-7.2c2.9-5,4.9-10.9,10.3-13.7
		c0.3-0.1,0.5-0.5,0.6-0.8c1.2-4,3.4-6.2,7.2-7c0.9-0.2,3.3-3,2.5-4.5c-2.5-4.8-1.5-5.8,4-6c6-0.2,6-5.7,5.1-11.2
		c-0.6-3.8,4.2-3.1,6.1-7c0.8-1.7,0.6-4.5-0.1-6.3c-1.2-3-7-10.1-6.4-13.8c0.2-1.3-0.6-2.6-1-3.9c-0.9-0.4-1.8-0.9-2.7-1.3
		c-5.5,1.2-10.2,4.8-14.7,8.5c-2.8,2.3-3.5,5.7-3.1,9.2c0.4,3.7,0,6.8-3.4,9.5c-2.2,1.7-2.8,4.3-2.1,6.9c0.8,3.4,6.2,4.8-1.6,10
		c-1.1,0.8-1.2,3.9-0.5,4.7c3.6,4.5,2.4,9.8,0.3,15c-2,4.9-4.6,9.7-7.4,15.2l-0.9-1c-1.4-6.2-1.3-11.9,1.4-17.8
		c0.8-1.7,1.7-3.4,2.4-5.1c1-2.4,1.4-4.7-0.1-6.7c-1.4-1.8-0.9-4,0.3-6c1.4-2.4,1.4-4.3,0.2-6.6c-0.7-1.3-0.6-3.7,0-5.3
		c1.1-3.3,1.5-6.2-0.2-9c-0.7-1.1-0.6-2.9-0.5-4.5c0.1-6.3-3.5-8.8-8.8-5.6c-1.8,1.1-2.7,2.6-1.5,4.4c1.4,1.9-2.6,1.9-4.3,3.3
		c-3.9,3.3-1.4,9.6-0.4,14.5c0.6,3-4.9,2.6-5.8,4.4c-2.8,7.6,1.3,12.3,6.1,17.5c0.5,0.6,1.3,1.2,1.4,2c0.8,3.6-0.3,6,2.3,7.9
		c1.6,1.1,2,4.4,2.4,6.9c0,0,0.4,5.1-3.1,6.5c-12.2-2.3-23.5,1.5-27.9,10.3c-4.8,9.7,0.4,22.4,11.7,30.8l0,0
		c1.5,1.2,2.2,2.7,2.5,3.7c-0.6,4.9-1.5,10.3-5.8,12.9c-1.8,1.1-4.1,1.7-5.3,3.4c-0.9,1.4-0.9,3.2-0.2,4.8c0.7,1.6,1.9,3,3.1,4.3
		c-0.9-1.6-1-3.5-0.4-5.1c0.8-2.3,3-3.8,5.2-4.9s4.7-1.9,6.7-3.2c1.9-1.2,3.4-2.9,4.4-4.9l0,0c2.8-3.7,8.6-3,8.6-3l0,0
		c11.7,1.8,22.5-2,26.7-10.5c3.9-7.9,1.2-17.8-6.1-25.8v0l0,0c-0.8-0.9-1.6-1.7-2.5-2.5c-0.8-1.2-1.6-2.8-1.6-4.7
		c2.6-1.6,5.1-3.4,7.8-4.4c1.2-0.5,2.8,0.4,4.1,1c1.7,0.9,3.2,2.4,5,3c3.6,1.3,4.8,0.3,7.1-3.6c0.8-1.3,2.4-2.7,3.7-2.8
		c3.1-0.4,5-2.2,5.6-5.4c0.5-2.6,1.6-3.7,3.8-3.7C306,104.7,312.9,107.5,307.9,94.8z"/>
	<g>
		<path class="st7" d="M131.3,31.4c1.1-0.9,1.1-2.3,0.1-3.1c-1.1-0.8-2.8-0.7-3.9,0.2l-99.1,82.7c-1.1,0.9-1.1,2.3-0.1,3.1
			c1.1,0.8,2.8,0.7,3.9-0.2L131.3,31.4z"/>
		<path class="st7" d="M168.4,50.6c-0.9-0.9-2.6-1-3.9-0.2l-87.2,57l-4.4,1.1l44.9-34.3l45.3-24.9c1.3-0.7,1.7-2.1,0.9-3.1
			c-0.8-1-2.5-1.2-3.8-0.4l-18.6,10.2l10.2-7.8c1.1-0.8,1.2-2.2,0.2-3c-1-0.8-2.7-0.8-3.8,0L114.5,71l-14.9,8.2l58.2-44.7
			c1.1-0.8,1.2-2.2,0.2-3c-1-0.8-2.7-0.8-3.8,0l-81,62.3l-20.3,11.1l92.4-70.5c1.1-0.8,1.2-2.2,0.2-3c-1-0.8-2.7-0.8-3.8,0
			L37.7,110.6c-1.1,0.8-1.2,2.2-0.2,3c1,0.8,2.6,0.8,3.7,0.1c0,0,0,0,0,0.1c0.8,1,2.5,1.2,3.8,0.4l5.2-2.9c-0.7,0.8-0.6,1.9,0.2,2.7
			c0.1,0.1,0.1,0.1,0.2,0.1l-16.1,4.1c-1.5,0.4-2.4,1.6-2.1,2.7c0.4,1.1,1.9,1.7,3.4,1.4l16.9-4.3l-8.5,6.5c-1.1,0.8-1.2,2.2-0.2,3
			c1,0.8,2.7,0.8,3.8,0l4.6-3.5c-0.3,0.7-0.2,1.4,0.4,2c0.9,0.9,2.6,1,3.9,0.2l22.9-15l15.4-3.9l-50.9,34.7
			c-1.2,0.8-1.4,2.2-0.5,3.1c0.9,0.9,2.7,0.9,3.9,0.1l60.4-41.2l63.5-16c1.5-0.4,2.4-1.6,2.1-2.7c-0.4-1.1-1.9-1.7-3.4-1.4
			l-51.8,13.1l38.3-26.1c1.2-0.8,1.4-2.2,0.5-3.1c-0.9-0.9-2.7-0.9-3.9-0.1l-47.8,32.6L90.8,104l77-50.3
			C169,52.9,169.3,51.5,168.4,50.6z M55.7,112.9L76.4,97l14.3-7.9l-29.2,22.3L55.7,112.9z M56.9,120.7l7.3-5.6l2-0.5L56.9,120.7z"/>
	</g>
	<path class="st7" d="M122,172.8c10.5-1.3,17.3-9,26.1-14.8c7.1-4.6,17.2-8.3,19.3-16.5c1.2-4.8,0.1-10.2-2.8-14.2
		c-0.8-5-6.2-8.6-11.4-9.2c-5.6-0.7-11.3,0.9-17,1.2c-4,0.2-8-0.2-12-0.6c-5.3-0.5-10.1,1.7-15.3,2.4c-6.8,1-12.7,3.4-13.5,7.7
		c-0.9,4.8-4.4,6.6-4.8,11.6c-0.5,6.5,3.6,13.1,6.7,18.8C102.3,169,110.9,174.1,122,172.8z M158.7,130.3c-0.5-0.5-0.5-1.4,0.1-1.9
		c0.5-0.5,1.4-0.5,1.9,0.1l0.8,0.8c0.5,0.5,0.5,1.4-0.1,1.9c-0.5,0.5-1.4,0.5-1.9-0.1L158.7,130.3z M132.7,133.1l0.2-0.2
		c1-0.9,2.5-0.8,3.3,0.2c0.9,1,0.8,2.5-0.2,3.3l-0.2,0.2c-1,0.9-2.5,0.8-3.3-0.2C131.7,135.4,131.8,133.9,132.7,133.1z M105.6,135.7
		c-0.8-0.9-0.8-2.4,0.2-3.2c0.9-0.8,2.4-0.8,3.2,0.2l0.4,0.5c0.8,0.9,0.8,2.4-0.2,3.2c-0.9,0.8-2.4,0.8-3.2-0.2L105.6,135.7z
		 M119.6,158.6c-0.6-0.6-0.5-1.6,0.1-2.2c0.6-0.6,1.6-0.5,2.2,0.1l1.1,0.8c0.6,0.6,0.1,1.8-0.5,2.4c-0.6,0.6-1.6,0.2-2.2-0.5
		L119.6,158.6z"/>
	<g>
		<path class="st7" d="M113.8,218.7c-1.6-1.7-4.4-4.2-6.9-4.5c0,0-1.2,3.4,1.4,8.8c0.1,0.4,0.3,0.7,0.5,1.1c1.4,2.2,3.9,3.1,5.7,2
			c1.7-1.1,2-3.8,0.6-6C114.7,219.6,114.3,219.1,113.8,218.7z"/>
		<path class="st7" d="M92.2,197.5c-0.4,0.1-0.7,0.3-1.1,0.6c-2.2,1.4-3,4-1.9,5.7c1.1,1.7,3.8,1.9,6,0.5c0.6-0.4,1-0.8,1.4-1.3
			c1.6-1.6,4.2-4.5,4.4-6.9C101,196,97.6,194.8,92.2,197.5z"/>
		<path class="st7" d="M155.6,193.2c1.4-1.8,3.6-4.9,3.5-7.4c0,0-3.5-0.7-8.5,2.5c-0.3,0.2-0.7,0.4-1,0.7c-0.2,0.1-0.3,0.3-0.5,0.5
			c-0.2-0.2-0.5-0.3-0.7-0.4c-2.3-1.2-5-0.6-5.9,1.2c-0.6,1.3-0.3,2.8,0.8,4.1c-0.7,0.4-1.4,0.9-2.2,1.4c-0.7-0.9-1.6-1.4-2.6-1.4
			c-0.5,0-1,0.1-1.5,0.4c0.6-1.2,1.1-2.9,1.4-5c0.1-0.4,0.1-0.8,0.1-1.2c0-2.6-1.7-4.7-3.7-4.7c-2,0-3.7,2.1-3.7,4.7
			c0,0.7,0.1,1.3,0.3,1.9c0,0.2,0.1,0.4,0.1,0.7c-1.3,0.4-2.7,1-4.4,2.1c-0.3,0.2-0.7,0.4-1,0.7c-0.2,0.1-0.3,0.3-0.5,0.5
			c-0.2-0.2-0.5-0.3-0.7-0.4c-0.4-0.2-0.8-0.3-1.2-0.4c0.4-0.8,0.7-1.6,0.8-2.4c0,0-3.4-1.1-8.8,1.5c-0.2,0.1-0.5,0.2-0.7,0.3
			c-0.2-2.4-1.8-4.3-3.7-4.3c-2,0-3.7,2.1-3.7,4.7c0,0.7,0.1,1.3,0.3,1.9c0.2,1,0.5,2.2,0.9,3.4c-0.9,1.3-1.9,3.4-2.4,6.6
			c-0.1,0.4-0.1,0.8-0.1,1.2c0,0.4,0,0.8,0.1,1.1c-0.2-0.3-0.5-0.6-0.8-0.8c-1.7-1.2-4.3-0.3-5.7,1.8c-0.4,0.6-0.6,1.1-0.8,1.7
			c-0.9,2.1-2.1,5.7-1.4,8.1c0,0,3.6-0.3,7.6-4.7c0.3-0.3,0.5-0.6,0.8-0.9c0.8-1.1,1.1-2.4,1-3.5c0.7,1.2,1.7,1.9,2.9,2
			c0.2,0,0.4,0,0.6,0c0.5,0.9,1.4,1.8,2.5,2.3c0.6,0.3,1.2,0.5,1.8,0.5c2.2,0.5,6,1.2,8.2,0.1c0,0-0.1-0.4-0.4-0.9
			c0.5-0.2,1.1-0.4,1.7-0.8c0,0.2,0.1,0.3,0.1,0.5c0.4,2.3,1.4,5.9,3.4,7.5c0,0,1.7-1.4,2.8-4.8c0.2,0.8,0.6,1.7,1,2.7
			c0.1,0.4,0.3,0.7,0.5,1.1c1.4,2.2,3.9,3.1,5.7,2c1.7-1.1,2-3.8,0.6-6c-0.4-0.6-0.8-1-1.3-1.4c-1.4-1.4-3.6-3.5-5.8-4.3
			c-0.1-0.5-0.3-1-0.5-1.4c0.9-0.5,1.9-1.2,2.6-1.8c0.1,0,0.3,0,0.4,0c0.5,0.9,1.4,1.8,2.5,2.3c0.6,0.3,1.2,0.5,1.8,0.5
			c2.2,0.5,6,1.2,8.2,0.1c0,0-0.7-3.1-5-6.1c0.2-0.7,0.4-1.5,0.5-2.4c0.8,0.1,1.7,0.1,2.8,0c-0.3,0.6-0.4,1.3-0.3,2
			c0.3,1.4,1.6,2.4,3.2,2.7c0,0.2,0,0.5,0,0.7c0,0.7,0.1,1.3,0.3,1.9c0.4,2.3,1.4,5.9,3.4,7.5c0,0,2.8-2.2,3.6-8.2
			c0.1-0.4,0.1-0.8,0.1-1.2c0-1-0.3-2-0.7-2.7c1.6-0.9,3.2-2.1,3.9-3.5c0,0-2.4-2-7.5-1.9c0.2-0.3,0.3-0.6,0.4-0.9
			c1.4,0.1,2.8,0,3.9-0.5c0,0-0.2-0.7-0.8-1.8c0,0,0.1,0,0.1-0.1C154.9,194.2,155.3,193.7,155.6,193.2z M129.1,201.9
			c0.2,0,0.4,0,0.6,0c0,0.3,0,0.5,0.1,0.8C129.6,202.4,129.4,202.1,129.1,201.9z M119.5,198.7c0.1,0.1,0.2,0.3,0.3,0.4
			c-0.7,0.4-1.4,0.9-2.2,1.4c-0.2-0.2-0.3-0.4-0.5-0.5c0.5-0.2,1-0.4,1.5-0.7C119,199.2,119.2,198.9,119.5,198.7z M118,208
			c0.2-0.7,0.4-1.5,0.5-2.4c0.8,0.1,1.7,0.1,2.8,0c-0.3,0.6-0.4,1.3-0.3,2c0.1,0.4,0.2,0.7,0.4,1c-0.2,0.7-0.3,1.4-0.4,2.1
			C120.3,209.8,119.3,208.9,118,208z"/>
		<path class="st7" d="M171.7,178.4c-0.4-2.3-1.3-5.9-3.3-7.5c0,0-2.8,2.2-3.7,8.1c-0.1,0.4-0.1,0.8-0.1,1.2c0,2.6,1.6,4.8,3.6,4.8
			s3.7-2.1,3.8-4.7C171.9,179.7,171.8,179,171.7,178.4z"/>
		<path class="st7" d="M92.5,190.9c0.3-0.3,0.5-0.6,0.8-0.9c0.8-1.1,1.1-2.4,1-3.5c0.7,1.2,1.7,1.9,2.9,2c2,0,3.7-2.1,3.8-4.7
			c0-0.7-0.1-1.3-0.3-1.9c-0.4-2.3-1.3-5.9-3.3-7.5c0,0-2.8,2.2-3.7,8.1c-0.1,0.4-0.1,0.8-0.1,1.2c0,0.4,0,0.8,0.1,1.1
			c-0.2-0.3-0.5-0.6-0.8-0.8c-1.7-1.2-4.3-0.3-5.7,1.8c-0.4,0.6-0.6,1.1-0.8,1.7c-0.9,2.1-2.1,5.7-1.4,8.1
			C85,195.6,88.5,195.4,92.5,190.9z"/>
	</g>
	<g>
		<path class="st7" d="M308.9,162.2L308.9,162.2C308.5,162.3,308.8,162.2,308.9,162.2z"/>
		<path class="st7" d="M359.6,140c0.3-1.2,0-2.5-0.7-3.7c-1.3-1.9-3.6-2.7-5.6-1.9c0-0.1-0.1-0.2-0.2-0.3c-1.1-1.7-3.3-2.2-4.9-1.1
			c-0.3,0.2-0.5,0.4-0.7,0.7c-0.3-0.2-0.7-0.4-1-0.6c0-0.8-0.3-1.6-0.8-2.3c-1.4-2.1-4.1-2.7-6.2-1.4c0,0,0,0,0,0
			c-0.8-0.1-1.6-0.2-2.4-0.2c-0.5,0-1.1-0.1-1.6-0.2c-0.1-0.5-0.3-0.9-0.5-1.3c-1.1-1.7-3.4-2.2-5.1-1.1c0,0,0,0-0.1,0
			c-1.6-1.7-4.2-2.1-6.1-0.8c-1.1,0.7-1.8,1.8-2,3.1c-0.2-0.1-0.4-0.2-0.7-0.3c-0.1-0.5-0.2-1-0.5-1.4c-0.9-1.5-2.9-1.9-4.3-1
			c-0.6,0.4-1,1-1.2,1.7c-0.1,0-0.1,0-0.2,0c-1.1-1.2-3-1.4-4.6-0.4c-1.2,0.8-1.8,2.1-1.7,3.3c-0.1,0.1-0.1,0.2-0.2,0.2
			c-0.4,0.1-0.7,0.2-1,0.4c-1.1,0.7-1.6,2-1.4,3.2c-0.4,0.9-0.7,1.8-0.9,2.7c-0.1,0.3-0.7,0.5-1.1,0.6c-3.2,0.4-5.9,1.9-7.7,4.2
			c-0.7,0.1-1.5,0.4-2.2,0.9c-2.4,1.5-3.3,4.3-2,6.2c0.4,0.5,0.9,1,1.4,1.2c0,0.4,0,0.8,0.1,1.2c-0.9,1.2-1,2.7-0.2,3.9
			c0.5,0.8,1.4,1.3,2.3,1.4c0.2,0.4,0.5,0.7,0.8,1c-0.4,0.7-0.5,1.5-0.1,2.1c0.6,0.9,1.8,1.1,3,0.5c0.3,0.2,0.5,0.3,0.8,0.5
			c0.8,1,1.8,1.6,2.3,1.2c0.1,0,0.1-0.1,0.1-0.1c2.1,0.6,4.4,0.7,6.6,0.1c0.1,0,0.1,0,0,0c1.5,3.9,2.5,9.9,3.8,13.9
			c2.9,8.7,4.8,15,4.1,24.2c-0.1,0.8,0.2,1.7,0.3,2.5c0.1,0.2,0.3,0.5,0.4,0.7c0.8,0.4,3.2,1,4,1.2c1.7,0.4,4.7,1.2,5.6-0.7
			c1.6-3.8,3.4-10.7,5.4-14.3c4-7.3,9.7-11.6,14.7-17.1c1.1,0.6,2.4,0.7,3.6,0.2c0,0,0,0,0,0c0.3,0.2,0.6,0.3,1,0.4
			c0.1,0.2,0.2,0.5,0.3,0.7c0.8,1.1,2.3,1.5,3.4,0.8c0.2-0.2,0.5-0.4,0.6-0.6c1.3,0,2.6-0.2,3.8-0.6c1.4,0.7,3.2,0.7,4.6-0.2
			c1.7-1.1,2.4-3.2,1.9-5.2c0.1-0.2,0.3-0.5,0.4-0.8c0.1-0.2,0.2-0.4,0.3-0.5c0.5-0.1,1-0.3,1.4-0.6c2.3-1.5,2.9-4.7,1.4-7.1
			c-0.2-0.3-0.4-0.6-0.7-0.8c0-0.6-0.1-1.3-0.5-1.8c-0.6-1-1.8-1.5-2.8-1.3c-0.2-0.4-0.5-0.7-0.8-1c0.5-0.8,0.5-1.8-0.1-2.6
			c-0.7-1.1-2.2-1.5-3.3-0.7c-0.1,0.1-0.2,0.1-0.3,0.2c-0.4-0.4-0.5-0.8-0.4-1.4c0,0,0,0,0,0c0.9-0.7,1.2-1.9,0.7-3
			c1.2-1.2,1.5-3.2,0.5-4.7C361.7,140.7,360.7,140.1,359.6,140z M323.6,180.3c-0.8-2.7-3.7-8.4-4.6-11.4c1.4,0.7,5.3,2.1,6.5,2.7
			C325,173.8,324,178.2,323.6,180.3z M327.5,182.6c0.4-1.9,2.1-7.1,2.6-9.5c1.1-0.1,4.8,0.1,6.5,0
			C334.7,175.6,329.1,180.6,327.5,182.6z"/>
	</g>
	<g>
		<path class="st7" d="M204.3,347.2c-1.6-0.5-2.3-1.6-2.5-2.6c0-0.2,0-0.3,0-0.5c0-2.7-2.2-4.8-4.8-4.8c-1.7,0-3.2,0.9-4,2.2l0,0v0
			c-0.5,0.8-0.8,1.7-0.8,2.7c0,0.1,0,0.3,0,0.4c-0.5,6.4,6.6,9.8,8.9,10.8c0.6,0.3,1.2,0.4,1.9,0.4c2.4,0,4.4-1.9,4.4-4.4
			C207.2,349.4,206,347.8,204.3,347.2z"/>
		<path class="st7" d="M185.2,366.2c1.3-1.1,2.6-1.1,3.6-0.8c0.1,0.1,0.3,0.2,0.4,0.3c2.3,1.4,5.3,0.7,6.6-1.6
			c0.9-1.4,0.9-3.2,0.3-4.6l0,0h0c-0.4-0.8-1-1.6-1.9-2.1c-0.1-0.1-0.2-0.1-0.4-0.2c-5.2-3.8-11.8,0.5-13.8,2
			c-0.5,0.3-1,0.8-1.3,1.4c-1.3,2-0.6,4.7,1.4,6C181.8,367.6,183.8,367.3,185.2,366.2z"/>
		<path class="st7" d="M206.5,365.5c-1.3,1-2.6,1-3.6,0.7c-0.1-0.1-0.3-0.2-0.4-0.3c-2.2-1.5-5.2-0.8-6.7,1.4
			c-0.9,1.4-1,3.1-0.4,4.6l0,0l0,0c0.4,0.8,1,1.6,1.8,2.1c0.1,0.1,0.2,0.1,0.4,0.2c5.1,4,11.8-0.1,13.9-1.6c0.5-0.3,1-0.8,1.4-1.3
			c1.3-2,0.7-4.7-1.3-6C210,364.3,207.9,364.4,206.5,365.5z"/>
		<path class="st7" d="M190.3,340.2c-0.5-1.6,0-2.8,0.6-3.6c0.2-0.1,0.3-0.2,0.4-0.3c2.2-1.6,2.7-4.6,1.1-6.7c-1-1.4-2.6-2.1-4.1-2
			l0,0l0,0c-0.9,0-1.8,0.3-2.6,0.9c-0.1,0.1-0.2,0.2-0.3,0.3c-5.5,3.3-4.1,11.1-3.5,13.5c0.1,0.6,0.4,1.2,0.7,1.8
			c1.4,2,4.1,2.4,6.1,1C190.2,343.9,190.8,341.9,190.3,340.2z"/>
		<path class="st7" d="M210.1,326.4c-1.6-0.5-2.3-1.6-2.5-2.6c0-0.2,0-0.3,0-0.5c0-2.7-2.2-4.8-4.8-4.8c-1.7,0-3.2,0.9-4,2.2l0,0v0
			c-0.5,0.8-0.8,1.7-0.8,2.7c0,0.1,0,0.3,0,0.4c-0.5,6.4,6.6,9.8,8.9,10.8c0.6,0.3,1.2,0.4,1.9,0.4c2.4,0,4.4-1.9,4.4-4.4
			C213,328.6,211.8,327,210.1,326.4z"/>
		<path class="st7" d="M215.7,356.1c-1.6-0.5-2.3-1.6-2.5-2.6c0-0.2,0-0.3,0-0.5c0-2.7-2.2-4.8-4.8-4.8c-1.7,0-3.2,0.9-4,2.2l0,0v0
			c-0.5,0.8-0.8,1.7-0.8,2.7c0,0.1,0,0.3,0,0.4c-0.5,6.4,6.6,9.8,8.9,10.8c0.6,0.3,1.2,0.4,1.9,0.4c2.4,0,4.4-1.9,4.4-4.4
			C218.6,358.3,217.4,356.7,215.7,356.1z"/>
		<path class="st7" d="M181.8,355.1c1.6,0.3,2.4,1.4,2.8,2.3c0,0.2,0,0.3,0,0.5c0.3,2.7,2.7,4.5,5.4,4.2c1.7-0.2,3-1.2,3.8-2.6l0,0
			v0c0.4-0.8,0.6-1.8,0.5-2.7c0-0.1,0-0.3-0.1-0.4c-0.2-6.5-7.6-9-10.1-9.6c-0.6-0.2-1.2-0.3-1.9-0.2c-2.4,0.3-4.1,2.4-3.8,4.8
			C178.6,353.2,180,354.7,181.8,355.1z"/>
		<path class="st7" d="M203.7,353.3c-0.7,1.5-1.9,2.1-2.9,2.2c-0.2,0-0.3-0.1-0.5-0.1c-2.7-0.3-5,1.6-5.3,4.3
			c-0.2,1.7,0.5,3.2,1.7,4.2l0,0l0,0c0.7,0.6,1.6,1,2.6,1.1c0.1,0,0.3,0,0.4,0c6.3,1.3,10.5-5.4,11.7-7.7c0.3-0.5,0.6-1.1,0.6-1.8
			c0.3-2.4-1.5-4.5-3.8-4.8C206.2,350.6,204.5,351.6,203.7,353.3z"/>
		<path class="st7" d="M210.9,345.6c1.6-0.4,2.8,0.2,3.6,0.8c0.1,0.2,0.2,0.3,0.2,0.5c1.4,2.2,4.4,2.9,6.7,1.5
			c1.4-0.9,2.2-2.4,2.2-4l0,0l0,0c0-0.9-0.2-1.8-0.8-2.7c-0.1-0.1-0.2-0.2-0.2-0.3c-3-5.7-10.8-4.7-13.3-4.3
			c-0.6,0.1-1.2,0.3-1.8,0.6c-2,1.3-2.6,4-1.3,6C207.2,345.4,209.1,346.1,210.9,345.6z"/>
	</g>
	<path class="st7" d="M237.1,277.2L237.1,277.2c-7.2-4.5-9.5-8.6-9.5-8.6l-10.3-18c0,0,4.7-3.3,3.9-6.7c0,0-6.7-11.6-11.8,1.7
		c0,0-13.6-2.6-7.8,8.9c0,0,0.6,3.6,6.8,1.5c0,0,7.3,12.2,11.2,19.6l0,0c1.8,3.3,1.5,7.1,1.4,8.4c-1.8,11.7-4.2,45.6,24.2,63
		c0,0,13,6.4,23.2,0.2C268.3,347.1,312.2,322.8,237.1,277.2z"/>
	<path class="st7" d="M205,269.7c-14.4,5.7-24,1.1-27.2-0.9l0-0.1c0,0-0.2-0.1-0.6-0.3c-0.4-0.3-0.6-0.4-0.6-0.4l0,0.1
		c-3.2-2-11.6-8.5-12.9-24c0,0-11.7,10.3,0.4,31.6c0,0-9.3,2.7-19.7,9.3c-4.9-0.6-6.5-6.2-6.5-6.2c-11.5,6-21.9,21.6-21.9,21.6
		c-3.3,7.2,1.1,11.4,3.3,12.9c-4.3,10.9-5.1,24.5,1.2,41.3c0,0,1.9-2.4,4.7-2.2c1.4,2.5,0.1,5.2,0.1,5.2c13-1.3,22.9-5.3,30.3-10.7
		l0,0c17.2,0.1,18.1-8,18.1-8c-2-3.4-5.8-2.5-9.1-0.6c5.3-6.6,8.5-14.1,10.3-21.4l0,0c11.4-9.1,6.2-11.2,6.2-11.2
		c-2.6-0.2-3.8,1.3-4.6,3c2-13.8,0-25.2,0-25.2C201,284.8,205,269.7,205,269.7z M125.2,342.3c-1.9,0-3.4-1.5-3.4-3.4
		c0-1.9,1.5-3.4,3.4-3.4c1.9,0,3.4,1.5,3.4,3.4C128.6,340.7,127.1,342.3,125.2,342.3z"/>
	<path class="st7" d="M84.8,238.4c-0.9-2.6-3.3-5.1-4.4-7.3c-1-2.1-0.5-4-1.5-5.9c-2.3-4.4-4.6-8.6-6.6-13.6
		c-0.7-2.5-1.4-4.9-2.2-7.4c-1.3-4.1-3.7-7.9-5.2-11.9c-1.8-4.6-3.2-8.5-5.3-13c-2.4,0.8-4.2,0.9-6.6,1.7c-2.8,1.1-3.4,2.3-6.2,3.4
		c-1.4,0.6-4.8,1.1-6.1,1.7c-4.9,2.2-9.6,4.7-14.3,7.3c-3.6,0.2-6.4,0.9-9.3,3c-0.2,4.9,2.5,9.9,6.7,12.4c0.8,0.5,1.7,1,1.8,1.8
		c0.1,0.9-0.6,1.7-0.9,2.6c-0.2,0.9,0.1,1.8,0.5,2.7c2,5,4.1,9.9,6.1,14.9c1.8,0.1,4,2.4,3.2,4c-1.9,3.9,1.5,10.6,5.7,18.7
		c0.9,1.7,1.2,3.7,1.8,5.5c1.1,3.5,1.8,6.3,4.3,9c1.5,1.6,1.1,2.7,1.5,3.6c1.1,2.7,2.2,5.4,3.7,7.8c14.9-6.1,26.9-11.7,42-17.1
		c0-4.1-5.3-11.4-6.2-15.2C86.6,244,85.7,241.1,84.8,238.4z M50.7,190.9c1.1-0.3,2.2,0.3,2.5,1.3c0.3,1.1-0.3,2.2-1.3,2.5
		s-2.2-0.3-2.5-1.3S49.6,191.2,50.7,190.9z M29.5,205.5c-0.4-1.3,0.3-2.7,1.6-3.1c1.3-0.4,2.7,0.3,3.1,1.6c0.4,1.3-0.3,2.7-1.6,3.1
		C31.2,207.5,29.8,206.8,29.5,205.5z M37.4,228.2c-0.3-1,0.3-2.2,1.3-2.5c1-0.3,2.2,0.3,2.5,1.3c0.3,1-0.3,2.2-1.3,2.5
		C38.9,229.8,37.7,229.2,37.4,228.2z M60.2,266.3c0.4,1.3-0.3,2.6-1.6,3c-1.3,0.4-2.6-0.3-3-1.6c-0.4-1.3,0.3-2.6,1.6-3
		C58.4,264.3,59.8,265,60.2,266.3z M52.8,245.6c0.4,1.3-0.3,2.6-1.6,3c-1.3,0.4-2.6-0.3-3-1.6c-0.4-1.3,0.3-2.6,1.6-3
		C51,243.6,52.4,244.3,52.8,245.6z M48.3,206.5c0.4,1.3-0.3,2.7-1.6,3.1c-1.3,0.4-2.7-0.3-3.1-1.6c-0.4-1.3,0.3-2.7,1.6-3.1
		C46.5,204.5,47.9,205.2,48.3,206.5z M57.2,226.9c-0.3-1,0.3-2.2,1.3-2.5c1-0.3,2.2,0.3,2.5,1.3c0.3,1-0.3,2.2-1.3,2.5
		C58.6,228.6,57.5,228,57.2,226.9z M73.3,248.1c0.4,1.2-0.3,2.5-1.6,2.9s-2.5-0.3-2.9-1.6c-0.4-1.2,0.3-2.5,1.6-2.9
		C71.6,246.2,72.9,246.9,73.3,248.1z M58,210c-0.4-1.3,0.3-2.7,1.6-3.1c1.3-0.4,2.7,0.3,3.1,1.6c0.4,1.3-0.3,2.7-1.6,3.1
		C59.8,212,58.4,211.3,58,210z M82.9,256.8c0.4,1.3-0.3,2.6-1.6,3c-1.3,0.4-2.6-0.3-3-1.6c-0.4-1.3,0.3-2.6,1.6-3
		C81.1,254.8,82.5,255.5,82.9,256.8z M73.4,236.7c-1.1,0.3-2.2-0.3-2.5-1.3c-0.3-1.1,0.3-2.2,1.3-2.5c1.1-0.3,2.2,0.3,2.5,1.3
		C75,235.2,74.4,236.4,73.4,236.7z"/>
</g>
  <path class="iconic-clock-frame"    d="M192,0C85.961,0,0,85.961,0,192s85.961,192,192,192s192-85.961,192-192S298.039,0,192,0zM315.037,315.037c-9.454,9.454-19.809,17.679-30.864,24.609l-14.976-25.939l-10.396,6l14.989,25.964c-23.156,12.363-48.947,19.312-75.792,20.216V336h-12v29.887c-26.845-0.903-52.636-7.854-75.793-20.217l14.989-25.963l-10.393-6l-14.976,25.938c-11.055-6.931-21.41-15.154-30.864-24.608s-17.679-19.809-24.61-30.864l25.939-14.976l-6-10.396l-25.961,14.99C25.966,250.637,19.017,224.846,18.113,198H48v-12H18.113c0.904-26.844,7.853-52.634,20.216-75.791l25.96,14.988l6.004-10.395L44.354,99.827c6.931-11.055,15.156-21.41,24.61-30.864s19.809-17.679,30.864-24.61l14.976,25.939l10.395-6L110.208,38.33C133.365,25.966,159.155,19.017,186,18.113V48h12V18.113c26.846,0.904,52.635,7.853,75.792,20.216l-14.991,25.965l10.395,6l14.978-25.942c11.056,6.931,21.41,15.156,30.865,24.611c9.454,9.454,17.679,19.808,24.608,30.863l-25.94,14.976l6,10.396l25.965-14.99c12.363,23.157,19.312,48.948,20.218,75.792H336v12h29.887c-0.904,26.845-7.853,52.636-20.216,75.792l-25.964-14.989l-6.002,10.396l25.941,14.978C332.715,295.229,324.491,305.583,315.037,315.037z" />
  <line class="iconic-clock-hour-hand" id="foo" fill="none" stroke="#000000" stroke-width="18" stroke-miterlimit="10" x1="192" y1="192" x2="192" y2="87.5"/>
  <line class="iconic-clock-minute-hand" id="iconic-anim-clock-minute-hand" fill="none" stroke="#000000" stroke-width="12" stroke-miterlimit="10" x1="192" y1="192" x2="192" y2="54"/>
  <circle class="iconic-clock-axis" cx="192" cy="192" r="9"/>
  <g class="iconic-clock-second-hand" id="iconic-anim-clock-second-hand">
      <line class="iconic-clock-second-hand-arm" fill="none" stroke="#D53A1F" stroke-width="4" stroke-miterlimit="10" x1="192" y1="192" x2="192" y2="28.5"/>
      <circle class="iconic-clock-second-hand-axis" fill="#D53A1F" cx="192" cy="192" r="4.5"/>
  </g>
  <defs>
  	.st0{display:none;}
	.st1{display:inline;fill:#FFFFFF;}
	.st2{display:inline;fill:#33A952;}
	.st3{fill:#0086C4;}
	.st4{fill:#5EB14B;}
	.st5{fill:#F38436;}
	.st6{display:none;fill:#FFFFFF;}
	.st7{fill:#FFFFFF;}
	.st8{fill:none;stroke:#000000;stroke-width:18;stroke-miterlimit:10;}
	.st9{fill:none;stroke:#000000;stroke-width:12;stroke-miterlimit:10;}
	.st10{fill:none;stroke:#D53A1F;stroke-width:4;stroke-miterlimit:10;}
	.st11{fill:#D53A1F;}
    <animateTransform
          type="rotate"
          fill="remove"
          restart="always"
          calcMode="linear"
          accumulate="none"
          additive="sum"
          xlink:href="#iconic-anim-clock-hour-hand"
          repeatCount="indefinite"
          dur="43200s"
          to="360 192 192"
          from="0 192 192"
          attributeName="transform"
          attributeType="xml">
    </animateTransform>

    <animateTransform
          type="rotate"
          fill="remove"
          restart="always"
          calcMode="linear"
          accumulate="none"
          additive="sum"
          xlink:href="#iconic-anim-clock-minute-hand"
          repeatCount="indefinite"
          dur="3600s"
          to="360 192 192"
          from="0 192 192"
          attributeName="transform"
          attributeType="xml">
    </animateTransform>

    <animateTransform
          type="rotate"
          fill="remove"
          restart="always"
          calcMode="linear"
          accumulate="none"
          additive="sum"
          xlink:href="#iconic-anim-clock-second-hand"
          repeatCount="indefinite"
          dur="60s"
          to="360 192 192"
          from="0 192 192"
          attributeName="transform"
          attributeType="xml">
    </animateTransform>
  </defs>
  <script  type="text/javascript">
  <![CDATA[
      var date = new Date;
      var seconds = date.getSeconds();
      var minutes = date.getMinutes();
      var hours = date.getHours();
      hours = (hours > 12) ? hours - 12 : hours;

      minutes = (minutes * 60) + seconds;
      hours = (hours * 3600) + minutes;

      document.querySelector('.iconic-clock-second-hand').setAttribute('transform', 'rotate('+360*(seconds/60)+',192,192)');
      document.querySelector('.iconic-clock-minute-hand').setAttribute('transform', 'rotate('+360*(minutes/3600)+',192,192)');
      document.querySelector('.iconic-clock-hour-hand').setAttribute('transform', 'rotate('+360*(hours/43200)+',192,192)');
  ]]>
  </script>
</svg>