<?xml version="1.0" encoding="utf-8"?>
<!-- Generator: Adobe Illustrator 24.1.1, SVG Export Plug-In . SVG Version: 6.00 Build 0)  -->
<svg version="1.1" id="Layer_1" xmlns="http://www.w3.org/2000/svg" xmlns:xlink="http://www.w3.org/1999/xlink" x="0px" y="0px"
	 viewBox="0 0 48 48" style="enable-background:new 0 0 48 48;" xml:space="preserve">
<style type="text/css">
	.st0{fill:none;}
	.st1{display:none;fill:none;stroke:#40B5E0;stroke-width:4;stroke-miterlimit:10;}
	.st2{display:none;}
	.st3{font-family:'AzoSans-Black';}
	.st4{font-size:18px;}
	.st5{fill:none;stroke:#EF8187;stroke-width:4;stroke-miterlimit:10;}
	.st6{display:none;fill:none;stroke:#956FDE;stroke-width:4;stroke-miterlimit:10;}
	.st7{fill:#231F20;}
</style>
<rect class="st0" width="48" height="48"/>
<path id="animate" class="st1" d="M24,6.7C14.5,6.7,6.7,14.5,6.7,24S14.5,41.3,24,41.3S41.3,33.5,41.3,24S33.5,6.7,24,6.7L24,6.7z"
	/>
<rect y="16.5" class="st0" width="48" height="20.7"/>
<text transform="matrix(1 0 0 1 16.0708 30.2871)" class="st2 st3 st4">M</text>
<path id="dinner_1_" class="st5" d="M11.8,36.2c6.8,6.8,17.7,6.8,24.4,0"/>
<path id="lunch_2_" class="st1" d="M36.2,11.8C29.5,5,18.5,5,11.8,11.8l0,0"/>
<path id="breakfast_1_" class="st6" d="M6.7,24c0,9.5,7.7,17.3,17.3,17.3"/>
<g id="blops">
	<path class="st7" d="M9,25.8c1,0,1.8-0.8,1.8-1.8c0-1-0.8-1.8-1.8-1.8H4.2c-1,0-1.8,0.8-1.8,1.8c0,1,0.8,1.8,1.8,1.8H9z"/>
	<path class="st7" d="M43.8,25.8c1,0,1.8-0.8,1.8-1.8c0-1-0.8-1.8-1.8-1.8H39c-1,0-1.8,0.8-1.8,1.8c0,1,0.8,1.8,1.8,1.8H43.8z"/>
	<path class="st7" d="M22.2,9c0,1,0.8,1.8,1.8,1.8c1,0,1.8-0.8,1.8-1.8V4.2c0-1-0.8-1.8-1.8-1.8c-1,0-1.8,0.8-1.8,1.8V9z"/>
	<path class="st7" d="M33.3,12.1c-0.7,0.7-0.7,1.8,0,2.5c0.7,0.7,1.8,0.7,2.5,0l2.5-2.5c0.7-0.7,0.7-1.8,0-2.5
		c-0.7-0.7-1.8-0.7-2.5,0L33.3,12.1z"/>
	<path class="st7" d="M9.6,35.9c-0.7,0.7-0.7,1.8,0,2.5c0.7,0.7,1.8,0.7,2.5,0l2.5-2.5c0.7-0.7,0.7-1.8,0-2.5
		c-0.7-0.7-1.8-0.7-2.5,0L9.6,35.9z"/>
	<path class="st7" d="M12.1,14.7c0.7,0.7,1.8,0.7,2.5,0c0.7-0.7,0.7-1.8,0-2.5l-2.5-2.5c-0.7-0.7-1.8-0.7-2.5,0
		c-0.7,0.7-0.7,1.8,0,2.5L12.1,14.7z"/>
	<path class="st7" d="M35.9,38.4c0.7,0.7,1.8,0.7,2.5,0c0.7-0.7,0.7-1.8,0-2.5l-2.5-2.5c-0.7-0.7-1.8-0.7-2.5,0
		c-0.7,0.7-0.7,1.8,0,2.5L35.9,38.4z"/>
	<path class="st7" d="M22.2,43.8c0,1,0.8,1.8,1.8,1.8c1,0,1.8-0.8,1.8-1.8V39c0-1-0.8-1.8-1.8-1.8c-1,0-1.8,0.8-1.8,1.8V43.8z"/>
</g>
</svg>
