<?xml version="1.0" encoding="utf-8"?>
<!-- Generator: Adobe Illustrator 24.1.1, SVG Export Plug-In . SVG Version: 6.00 Build 0)  -->
<svg version="1.1" id="Layer_1" xmlns="http://www.w3.org/2000/svg" xmlns:xlink="http://www.w3.org/1999/xlink" x="0px" y="0px"
	 viewBox="0 0 48 48" style="enable-background:new 0 0 48 48;" xml:space="preserve">
<style type="text/css">
	.st0{fill:none;}
	.st1{fill:#231F20;}
	.st2{
    display:none;
    animation: clock 60s easeinout infinite;
    <!-- animation-direction: flip; -->
		fill:none;
    stroke:#40B5E0;
    stroke-width:4;
		stroke-dasharray: 80;
		stroke-dashoffset: 0;
    transform-origin: center;
	}
  @keyframes clock {
    <!-- 0% {
      stroke-dashoffset: 0;
    } -->
    100% {
      stroke-dashoffset: 110;
    }
  }
<!-- 
40B5E0
7292F7
956FDE
C392FF
EF8187
FF4D3C
FF9F50
FEDA3C
44D19D
77D7DB

 -->

  <!-- const colors = ['#FF9F50', '#FF4D3C', '#EF8187', '#C392FF', '#956FDE', '#40B5E0', '#44D19D', '#7292F7', '#77D7DB', '#FEDA3C']; -->
  @keyframes spin {
    0% {
      stroke:#40B5E0;
      transform: rotate(0deg)
    }
    10% { stroke:#7292F7; }
    20% { stroke:#956FDE;}
    30% { stroke:#EF8187; }
    40% { stroke:#C392FF; }
    50% { stroke: #EF8187; }
    60% { stroke: #FF4D3C; }
    70% { stroke:#FF9F50; }
    80% { stroke:#FEDA3C; }
    90% { stroke:#44D19D; }
    100% {
      stroke:#40B5E0;
      transform: rotate(360deg)
    }
  }

	.st5{
    transform-origin: center;
    animation: spin 60s linear infinite;
    fill:none;
    stroke:#EF8187;
    stroke-width:4;
    stroke-miterlimit:10;
  }
  .st3, .st4 {
    display: none;
  }
	<!-- .st4{display:none;fill:none;stroke:#40B5E0;stroke-width:4;stroke-miterlimit:10;} -->
	<!-- .st5{display:none;fill:none;stroke:#956FDE;stroke-width:4;stroke-miterlimit:10;} -->
</style>
<rect class="st0" width="48" height="48"/>
<g>
	<path class="st1" d="M17.1,30.3v-13h3.6L24,22l3.3-4.8h3.5v13h-3.7V26c0-1,0-2.2,0-3.1l0,0c-0.5,0.8-1.1,1.7-1.7,2.5l-1.5,2.2
		l-1.6-2.2c-0.6-0.8-1.2-1.7-1.7-2.5l0,0c0,0.9,0,2,0,3.1v4.2H17.1z"/>
</g>
<path id="animate" class="st2" d="M24,6.7C14.5,6.7,6.7,14.5,6.7,24S14.5,41.3,24,41.3S41.3,33.5,41.3,24S33.5,6.7,24,6.7L24,6.7z"
	/>
<path id="dinner_1_" class="st3" d="M11.8,36.2c6.8,6.8,17.7,6.8,24.4,0"/>
<path id="lunch_2_" class="st4" d="M36.2,11.8C29.5,5,18.5,5,11.8,11.8l0,0"/>
<path id="breakfast_1_" class="st5" d="M6.7,24c0,9.5,7.7,17.3,17.3,17.3"/>
<g id="blops">
	<path class="st1" d="M9,25.8c1,0,1.8-0.8,1.8-1.8c0-1-0.8-1.8-1.8-1.8H4.2c-1,0-1.8,0.8-1.8,1.8c0,1,0.8,1.8,1.8,1.8H9z"/>
	<path class="st1" d="M43.8,25.8c1,0,1.8-0.8,1.8-1.8c0-1-0.8-1.8-1.8-1.8H39c-1,0-1.8,0.8-1.8,1.8c0,1,0.8,1.8,1.8,1.8H43.8z"/>
	<path class="st1" d="M22.2,9c0,1,0.8,1.8,1.8,1.8c1,0,1.8-0.8,1.8-1.8V4.2c0-1-0.8-1.8-1.8-1.8c-1,0-1.8,0.8-1.8,1.8V9z"/>
	<path class="st1" d="M33.3,12.1c-0.7,0.7-0.7,1.8,0,2.5c0.7,0.7,1.8,0.7,2.5,0l2.5-2.5c0.7-0.7,0.7-1.8,0-2.5
		c-0.7-0.7-1.8-0.7-2.5,0L33.3,12.1z"/>
	<path class="st1" d="M9.6,35.9c-0.7,0.7-0.7,1.8,0,2.5c0.7,0.7,1.8,0.7,2.5,0l2.5-2.5c0.7-0.7,0.7-1.8,0-2.5
		c-0.7-0.7-1.8-0.7-2.5,0L9.6,35.9z"/>
	<path class="st1" d="M12.1,14.7c0.7,0.7,1.8,0.7,2.5,0c0.7-0.7,0.7-1.8,0-2.5l-2.5-2.5c-0.7-0.7-1.8-0.7-2.5,0
		c-0.7,0.7-0.7,1.8,0,2.5L12.1,14.7z"/>
	<path class="st1" d="M35.9,38.4c0.7,0.7,1.8,0.7,2.5,0c0.7-0.7,0.7-1.8,0-2.5l-2.5-2.5c-0.7-0.7-1.8-0.7-2.5,0
		c-0.7,0.7-0.7,1.8,0,2.5L35.9,38.4z"/>
	<path class="st1" d="M22.2,43.8c0,1,0.8,1.8,1.8,1.8c1,0,1.8-0.8,1.8-1.8V39c0-1-0.8-1.8-1.8-1.8c-1,0-1.8,0.8-1.8,1.8V43.8z"/>
</g>
</svg>
